<?xml version="1.0" encoding="UTF-8" standalone="no"?>
<svg
   xmlns:dc="http://purl.org/dc/elements/1.1/"
   xmlns:cc="http://creativecommons.org/ns#"
   xmlns:rdf="http://www.w3.org/1999/02/22-rdf-syntax-ns#"
   xmlns:svg="http://www.w3.org/2000/svg"
   xmlns="http://www.w3.org/2000/svg"
   xmlns:sodipodi="http://sodipodi.sourceforge.net/DTD/sodipodi-0.dtd"
   xmlns:inkscape="http://www.inkscape.org/namespaces/inkscape"
   width="239.60001"
   height="67.099998"
   version="1.1"
   id="svg6"
   sodipodi:docname="logo.svg"
   inkscape:version="0.92.3 (2405546, 2018-03-11)">
  <metadata
     id="metadata12">
    <rdf:RDF>
      <cc:Work
         rdf:about="">
        <dc:format>image/svg+xml</dc:format>
        <dc:type
           rdf:resource="http://purl.org/dc/dcmitype/StillImage" />
        <dc:title></dc:title>
      </cc:Work>
    </rdf:RDF>
  </metadata>
  <defs
     id="defs10" />
  <sodipodi:namedview
     pagecolor="#ffffff"
     bordercolor="#666666"
     borderopacity="1"
     objecttolerance="10"
     gridtolerance="10"
     guidetolerance="10"
     inkscape:pageopacity="0"
     inkscape:pageshadow="2"
     inkscape:window-width="1187"
     inkscape:window-height="776"
     id="namedview8"
     showgrid="false"
     fit-margin-top="10"
     fit-margin-right="20"
     fit-margin-left="20"
     fit-margin-bottom="10"
     inkscape:zoom="2.535"
     inkscape:cx="120"
     inkscape:cy="33.1"
     inkscape:window-x="472"
     inkscape:window-y="42"
     inkscape:window-maximized="0"
     inkscape:current-layer="svg6" />
  <path
     d="m 60,35 c 0,3 -0.6,5.6 -1.6,8 A 19.3,19.3 0 0 1 40,55.2 c -2.9,0 -5.5,-0.5 -8,-1.5 A 18.6,18.6 0 0 1 21.5,43.1 C 20.5,40.6 20,37.9 20,35 c 0,-3 0.5,-5.7 1.5,-8.1 A 19.3,19.3 0 0 1 40,15 20.4,20.4 0 0 1 54.2,20.6 20.8,20.8 0 0 1 59.9,35 Z m -4.2,0 c 0,-2.2 -0.4,-4.3 -1,-6.4 A 15,15 0 0 0 40,18.3 c -2.5,0 -4.7,0.5 -6.7,1.4 a 15,15 0 0 0 -8.1,9 18.9,18.9 0 0 0 3.1,18 15.3,15.3 0 0 0 11.7,5 15.7,15.7 0 0 0 11.6,-5 c 1.3,-1.5 2.4,-3.3 3.1,-5.3 0.7,-2 1.1,-4.1 1.1,-6.4 z m 96,20.1 c -3,0 -5.3,-0.5 -7.2,-1.5 a 12.9,12.9 0 0 1 -6.8,-8.9 23,23 0 0 1 -0.6,-5.2 v -24 c 0,-0.3 0.2,-0.5 0.5,-0.5 h 3 c 0.2,0 0.4,0.2 0.4,0.5 v 23.6 c 0,1.6 0.2,3.1 0.6,4.6 0.4,1.5 1,2.8 1.8,4 0.8,1.2 2,2 3.3,2.8 1.3,0.8 3,1 5,1 2,0 3.7,-0.3 5,-1 1.3,-0.7 2.5,-1.7 3.3,-2.8 0.9,-1.2 1.5,-2.5 1.8,-4 0.4,-1.5 0.6,-3 0.6,-4.6 V 15.5 c 0,-0.3 0.2,-0.5 0.5,-0.5 h 3 c 0.2,0 0.5,0.2 0.5,0.5 v 24 c 0,1.7 -0.2,3.4 -0.7,5.2 a 13.3,13.3 0 0 1 -14,10.4 z m 63.8,-33.6 a 9.2,9.2 0 0 0 -7.4,-3.2 c -1,0 -1.9,0.2 -2.9,0.4 -1,0.3 -1.8,0.8 -2.6,1.4 -0.8,0.6 -1.4,1.3 -2,2.2 -0.6,0.9 -0.6,2 -0.6,3.2 0,1.2 0.2,2.2 0.7,3 0.4,0.8 1,1.4 1.8,2 0.8,0.6 1.7,1 2.6,1.4 a 91.6,91.6 0 0 0 7.1,2.4 c 1.4,0.5 2.6,1.2 3.7,2 1,0.8 2,1.8 2.6,3 0.7,1.3 1,2.9 1,4.8 0,1.9 -0.4,3.5 -1,4.9 a 11.8,11.8 0 0 1 -6.8,5.4 16,16 0 0 1 -14.2,-2.5 l -1.7,-1.6 c -0.5,-0.6 -0.8,-0.8 0,-1.5 l 1.8,-1.2 c 1,-0.6 1,-0.4 1.5,0.2 a 9.8,9.8 0 0 0 8,3.9 c 1,0 2,-0.1 3,-0.5 a 8.1,8.1 0 0 0 4.7,-3.7 c 0.5,-0.9 0.8,-2 0.8,-3.2 0,-1.3 -0.3,-2.4 -0.8,-3.3 a 6.9,6.9 0 0 0 -2,-2.2 13,13 0 0 0 -3,-1.5 128.4,128.4 0 0 0 -7.2,-2.5 c -1.2,-0.5 -2.3,-1.1 -3.3,-2 -1,-0.7 -1.8,-1.7 -2.3,-3 a 9.7,9.7 0 0 1 -1,-4.3 9.7,9.7 0 0 1 4,-8 12,12 0 0 1 4,-1.9 16.1,16.1 0 0 1 10.8,0.8 l 2.2,1.3 1.1,1 c 0.8,0.8 0.8,1 0,1.7 l -1.3,1 c -0.8,0.7 -1.2,0.3 -1.3,0.1 z M 106,29.3 a 1.9,1.9 0 1 1 0,-3.7 1.9,1.9 0 0 1 0,3.7 z m -20.3,0.1 a 1.9,1.9 0 1 1 0,-3.7 1.9,1.9 0 0 1 0,3.7 z"
     id="path2"
     inkscape:connector-curvature="0"
     style="fill:#414141" />
  <path
     d="m 93.3,20 h 0.4 l 0.2,0.3 v 18.9 c 0,0 4,-4.9 4,-8.4 V 20.3 c 0,-0.1 0.2,-0.3 0.4,-0.3 h 0.1 c 11.6,-1.1 20.2,-9.3 19.2,-10 h -0.2 c -1.2,0 -4,5.4 -21.5,5.4 -17.6,0 -20.3,-5.3 -21.5,-5.4 h -0.2 c -1,0.7 7.6,8.8 19,10 z m 13.4,37 c -0.7,0 -1,-1.5 -1,-2.7 0,-1.2 0.3,-1.2 1,-1.2 0.7,0 1,0.1 1,1.2 0,1.1 -0.4,2.8 -1,2.8 z m -2.7,0 c -0.6,0 -1,-1.5 -1,-2.7 0,-1.2 0.4,-1.2 1,-1.2 0.6,0 1,0.1 1,1.2 0,1.1 -0.3,2.8 -1,2.8 z m -2.6,0 c -0.6,0 -1,-1.5 -1,-2.7 0,-1.2 0.4,-1.2 1,-1.2 0.6,0 1,0.1 1,1.2 0,1.1 -0.3,2.8 -1,2.8 z m -11.1,0 c -0.6,0 -1,-1.5 -1,-2.7 0,-1.2 0.4,-1.2 1,-1.2 0.6,0 1,0.1 1,1.2 0,1.1 -0.3,2.8 -1,2.8 z m -2.6,0 c -0.6,0 -1,-1.5 -1,-2.7 0,-1.2 0.4,-1.2 1,-1.2 0.6,0 1,0.1 1,1.2 0,1.1 -0.3,2.8 -1,2.8 z m -2.6,0 c -0.6,0 -1,-1.5 -1,-2.7 0,-1.2 0.4,-1.2 1,-1.2 0.6,0 1,0.1 1,1.2 0,1.1 -0.4,2.8 -1,2.8 z"
     id="path4"
     inkscape:connector-curvature="0"
     style="fill:#414141" />
</svg>
